G04 #@! TF.FileFunction,Legend,Top*
%FSLAX46Y46*%
G04 Gerber Fmt 4.6, Leading zero omitted, Abs format (unit mm)*
G04 Created by KiCad (PCBNEW 4.0.6) date 04/24/18 14:39:14*
%MOMM*%
%LPD*%
G01*
G04 APERTURE LIST*
%ADD10C,0.100000*%
%ADD11C,0.250000*%
%ADD12C,0.150000*%
%ADD13C,0.120000*%
G04 APERTURE END LIST*
D10*
D11*
X63627001Y68224214D02*
X63203668Y68224214D01*
X63203668Y67558976D02*
X63203668Y68828976D01*
X63808430Y68828976D01*
X64292239Y67558976D02*
X64292239Y68828976D01*
X64776048Y68828976D01*
X64897001Y68768500D01*
X64957477Y68708024D01*
X65017953Y68587071D01*
X65017953Y68405643D01*
X64957477Y68284690D01*
X64897001Y68224214D01*
X64776048Y68163738D01*
X64292239Y68163738D01*
X66227477Y68768500D02*
X66106525Y68828976D01*
X65925096Y68828976D01*
X65743668Y68768500D01*
X65622715Y68647548D01*
X65562239Y68526595D01*
X65501763Y68284690D01*
X65501763Y68103262D01*
X65562239Y67861357D01*
X65622715Y67740405D01*
X65743668Y67619452D01*
X65925096Y67558976D01*
X66046048Y67558976D01*
X66227477Y67619452D01*
X66287953Y67679929D01*
X66287953Y68103262D01*
X66046048Y68103262D01*
X66771763Y67921833D02*
X67376525Y67921833D01*
X66650810Y67558976D02*
X67074144Y68828976D01*
X67497477Y67558976D01*
X67618429Y67438024D02*
X68586048Y67438024D01*
X68888429Y67558976D02*
X68888429Y68828976D01*
X69190810Y68828976D01*
X69372238Y68768500D01*
X69493191Y68647548D01*
X69553667Y68526595D01*
X69614143Y68284690D01*
X69614143Y68103262D01*
X69553667Y67861357D01*
X69493191Y67740405D01*
X69372238Y67619452D01*
X69190810Y67558976D01*
X68888429Y67558976D01*
X70097953Y67921833D02*
X70702715Y67921833D01*
X69977000Y67558976D02*
X70400334Y68828976D01*
X70823667Y67558976D01*
X70944619Y67438024D02*
X71912238Y67438024D01*
X72214619Y67558976D02*
X72214619Y68828976D01*
X72637952Y67921833D01*
X73061286Y68828976D01*
X73061286Y67558976D01*
X73907953Y68828976D02*
X74149857Y68828976D01*
X74270810Y68768500D01*
X74391762Y68647548D01*
X74452238Y68405643D01*
X74452238Y67982310D01*
X74391762Y67740405D01*
X74270810Y67619452D01*
X74149857Y67558976D01*
X73907953Y67558976D01*
X73787000Y67619452D01*
X73666048Y67740405D01*
X73605572Y67982310D01*
X73605572Y68405643D01*
X73666048Y68647548D01*
X73787000Y68768500D01*
X73907953Y68828976D01*
X74996524Y67558976D02*
X74996524Y68828976D01*
X75298905Y68828976D01*
X75480333Y68768500D01*
X75601286Y68647548D01*
X75661762Y68526595D01*
X75722238Y68284690D01*
X75722238Y68103262D01*
X75661762Y67861357D01*
X75601286Y67740405D01*
X75480333Y67619452D01*
X75298905Y67558976D01*
X74996524Y67558976D01*
X76266524Y68828976D02*
X76266524Y67800881D01*
X76327000Y67679929D01*
X76387476Y67619452D01*
X76508429Y67558976D01*
X76750333Y67558976D01*
X76871286Y67619452D01*
X76931762Y67679929D01*
X76992238Y67800881D01*
X76992238Y68828976D01*
X78201762Y67558976D02*
X77597000Y67558976D01*
X77597000Y68828976D01*
X65169143Y65403976D02*
X64745810Y66008738D01*
X64443429Y65403976D02*
X64443429Y66673976D01*
X64927238Y66673976D01*
X65048191Y66613500D01*
X65108667Y66553024D01*
X65169143Y66432071D01*
X65169143Y66250643D01*
X65108667Y66129690D01*
X65048191Y66069214D01*
X64927238Y66008738D01*
X64443429Y66008738D01*
X65713429Y66069214D02*
X66136762Y66069214D01*
X66318191Y65403976D02*
X65713429Y65403976D01*
X65713429Y66673976D01*
X66318191Y66673976D01*
X66681048Y66673976D02*
X67104382Y65403976D01*
X67527715Y66673976D01*
X68192953Y66673976D02*
X68313905Y66673976D01*
X68434857Y66613500D01*
X68495334Y66553024D01*
X68555810Y66432071D01*
X68616286Y66190167D01*
X68616286Y65887786D01*
X68555810Y65645881D01*
X68495334Y65524929D01*
X68434857Y65464452D01*
X68313905Y65403976D01*
X68192953Y65403976D01*
X68072000Y65464452D01*
X68011524Y65524929D01*
X67951048Y65645881D01*
X67890572Y65887786D01*
X67890572Y66190167D01*
X67951048Y66432071D01*
X68011524Y66553024D01*
X68072000Y66613500D01*
X68192953Y66673976D01*
X69160572Y65887786D02*
X70128191Y65887786D01*
X70672477Y65464452D02*
X70853905Y65403976D01*
X71156286Y65403976D01*
X71277239Y65464452D01*
X71337715Y65524929D01*
X71398191Y65645881D01*
X71398191Y65766833D01*
X71337715Y65887786D01*
X71277239Y65948262D01*
X71156286Y66008738D01*
X70914382Y66069214D01*
X70793429Y66129690D01*
X70732953Y66190167D01*
X70672477Y66311119D01*
X70672477Y66432071D01*
X70732953Y66553024D01*
X70793429Y66613500D01*
X70914382Y66673976D01*
X71216762Y66673976D01*
X71398191Y66613500D01*
X72365810Y66069214D02*
X72547239Y66008738D01*
X72607715Y65948262D01*
X72668191Y65827310D01*
X72668191Y65645881D01*
X72607715Y65524929D01*
X72547239Y65464452D01*
X72426286Y65403976D01*
X71942477Y65403976D01*
X71942477Y66673976D01*
X72365810Y66673976D01*
X72486763Y66613500D01*
X72547239Y66553024D01*
X72607715Y66432071D01*
X72607715Y66311119D01*
X72547239Y66190167D01*
X72486763Y66129690D01*
X72365810Y66069214D01*
X71942477Y66069214D01*
X73212477Y65887786D02*
X74180096Y65887786D01*
X74784858Y65403976D02*
X74784858Y66673976D01*
X75268667Y66673976D01*
X75389620Y66613500D01*
X75450096Y66553024D01*
X75510572Y66432071D01*
X75510572Y66250643D01*
X75450096Y66129690D01*
X75389620Y66069214D01*
X75268667Y66008738D01*
X74784858Y66008738D01*
X76054858Y65403976D02*
X76054858Y66673976D01*
X76054858Y66069214D02*
X76780572Y66069214D01*
X76780572Y65403976D02*
X76780572Y66673976D01*
D12*
X84582000Y42926000D02*
X82042000Y42926000D01*
X82042000Y42926000D02*
X82042000Y37846000D01*
X82042000Y37846000D02*
X84582000Y37846000D01*
X21082000Y53086000D02*
X21082000Y27686000D01*
X21082000Y27686000D02*
X84582000Y27686000D01*
X84582000Y27686000D02*
X84582000Y53086000D01*
X84582000Y53086000D02*
X21082000Y53086000D01*
D13*
X26000Y41914000D02*
X26000Y62734000D01*
X26000Y62734000D02*
X9626000Y62734000D01*
X9626000Y62734000D02*
X9626000Y41914000D01*
X9626000Y41914000D02*
X26000Y41914000D01*
D12*
X8382000Y9906000D02*
X8382000Y8382000D01*
X8382000Y12192000D02*
X8382000Y10668000D01*
X2540000Y41275000D02*
X2540000Y39751000D01*
X2540000Y39116000D02*
X2540000Y37592000D01*
X2540000Y36830000D02*
X2540000Y35306000D01*
X2540000Y34671000D02*
X2540000Y33147000D01*
X0Y17780000D02*
X0Y8890000D01*
X7620000Y17780000D02*
X7620000Y8890000D01*
X7620000Y8890000D02*
X0Y8890000D01*
X0Y17780000D02*
X7620000Y17780000D01*
X7620000Y12700000D02*
X6350000Y12700000D01*
X6350000Y12700000D02*
X6350000Y10160000D01*
X6350000Y10160000D02*
X7620000Y10160000D01*
X7620000Y16510000D02*
X6350000Y16510000D01*
X6350000Y16510000D02*
X6350000Y13970000D01*
X6350000Y13970000D02*
X7620000Y13970000D01*
X6350000Y17780000D02*
X7620000Y17780000D01*
X10160000Y7620000D02*
X22860000Y7620000D01*
X22860000Y7620000D02*
X22860000Y0D01*
X22860000Y0D02*
X10160000Y0D01*
X10160000Y0D02*
X10160000Y7620000D01*
X19050000Y7620000D02*
X19050000Y6350000D01*
X19050000Y6350000D02*
X21590000Y6350000D01*
X21590000Y6350000D02*
X21590000Y7620000D01*
X15240000Y7620000D02*
X15240000Y6350000D01*
X15240000Y6350000D02*
X17780000Y6350000D01*
X17780000Y6350000D02*
X17780000Y7620000D01*
X11430000Y7620000D02*
X11430000Y6350000D01*
X11430000Y6350000D02*
X13970000Y6350000D01*
X13970000Y6350000D02*
X13970000Y7620000D01*
D13*
X82292000Y26000D02*
X23372000Y26000D01*
X23372000Y26000D02*
X23372000Y9626000D01*
X23372000Y9626000D02*
X82292000Y9626000D01*
X82292000Y9626000D02*
X82292000Y26000D01*
D12*
X0Y32448500D02*
X0Y18351500D01*
X0Y18351500D02*
X7620000Y18351500D01*
X7620000Y18351500D02*
X7620000Y32448500D01*
X7620000Y32448500D02*
X0Y32448500D01*
X81280095Y26963619D02*
X81280095Y26154095D01*
X81327714Y26058857D01*
X81375333Y26011238D01*
X81470571Y25963619D01*
X81661048Y25963619D01*
X81756286Y26011238D01*
X81803905Y26058857D01*
X81851524Y26154095D01*
X81851524Y26963619D01*
X82851524Y25963619D02*
X82280095Y25963619D01*
X82565809Y25963619D02*
X82565809Y26963619D01*
X82470571Y26820762D01*
X82375333Y26725524D01*
X82280095Y26677905D01*
X11350667Y52871619D02*
X11350667Y52157333D01*
X11303047Y52014476D01*
X11207809Y51919238D01*
X11064952Y51871619D01*
X10969714Y51871619D01*
X11731619Y52871619D02*
X12350667Y52871619D01*
X12017333Y52490667D01*
X12160191Y52490667D01*
X12255429Y52443048D01*
X12303048Y52395429D01*
X12350667Y52300190D01*
X12350667Y52062095D01*
X12303048Y51966857D01*
X12255429Y51919238D01*
X12160191Y51871619D01*
X11874476Y51871619D01*
X11779238Y51919238D01*
X11731619Y51966857D01*
D13*
X8268381Y47549715D02*
X8268381Y46978286D01*
X8268381Y47264000D02*
X7268381Y47264000D01*
X7411238Y47168762D01*
X7506476Y47073524D01*
X7554095Y46978286D01*
D12*
X13549405Y8691619D02*
X13549405Y9691619D01*
X13787500Y9691619D01*
X13930358Y9644000D01*
X14025596Y9548762D01*
X14073215Y9453524D01*
X14120834Y9263048D01*
X14120834Y9120190D01*
X14073215Y8929714D01*
X14025596Y8834476D01*
X13930358Y8739238D01*
X13787500Y8691619D01*
X13549405Y8691619D01*
X15073215Y8691619D02*
X14501786Y8691619D01*
X14787500Y8691619D02*
X14787500Y9691619D01*
X14692262Y9548762D01*
X14597024Y9453524D01*
X14501786Y9405905D01*
X13549405Y10977619D02*
X13549405Y11977619D01*
X13787500Y11977619D01*
X13930358Y11930000D01*
X14025596Y11834762D01*
X14073215Y11739524D01*
X14120834Y11549048D01*
X14120834Y11406190D01*
X14073215Y11215714D01*
X14025596Y11120476D01*
X13930358Y11025238D01*
X13787500Y10977619D01*
X13549405Y10977619D01*
X14501786Y11882381D02*
X14549405Y11930000D01*
X14644643Y11977619D01*
X14882739Y11977619D01*
X14977977Y11930000D01*
X15025596Y11882381D01*
X15073215Y11787143D01*
X15073215Y11691905D01*
X15025596Y11549048D01*
X14454167Y10977619D01*
X15073215Y10977619D01*
X7770905Y40060619D02*
X7770905Y41060619D01*
X8009000Y41060619D01*
X8151858Y41013000D01*
X8247096Y40917762D01*
X8294715Y40822524D01*
X8342334Y40632048D01*
X8342334Y40489190D01*
X8294715Y40298714D01*
X8247096Y40203476D01*
X8151858Y40108238D01*
X8009000Y40060619D01*
X7770905Y40060619D01*
X8675667Y41060619D02*
X9294715Y41060619D01*
X8961381Y40679667D01*
X9104239Y40679667D01*
X9199477Y40632048D01*
X9247096Y40584429D01*
X9294715Y40489190D01*
X9294715Y40251095D01*
X9247096Y40155857D01*
X9199477Y40108238D01*
X9104239Y40060619D01*
X8818524Y40060619D01*
X8723286Y40108238D01*
X8675667Y40155857D01*
X7770905Y37901619D02*
X7770905Y38901619D01*
X8009000Y38901619D01*
X8151858Y38854000D01*
X8247096Y38758762D01*
X8294715Y38663524D01*
X8342334Y38473048D01*
X8342334Y38330190D01*
X8294715Y38139714D01*
X8247096Y38044476D01*
X8151858Y37949238D01*
X8009000Y37901619D01*
X7770905Y37901619D01*
X9199477Y38568286D02*
X9199477Y37901619D01*
X8961381Y38949238D02*
X8723286Y38234952D01*
X9342334Y38234952D01*
X7770905Y35615619D02*
X7770905Y36615619D01*
X8009000Y36615619D01*
X8151858Y36568000D01*
X8247096Y36472762D01*
X8294715Y36377524D01*
X8342334Y36187048D01*
X8342334Y36044190D01*
X8294715Y35853714D01*
X8247096Y35758476D01*
X8151858Y35663238D01*
X8009000Y35615619D01*
X7770905Y35615619D01*
X9247096Y36615619D02*
X8770905Y36615619D01*
X8723286Y36139429D01*
X8770905Y36187048D01*
X8866143Y36234667D01*
X9104239Y36234667D01*
X9199477Y36187048D01*
X9247096Y36139429D01*
X9294715Y36044190D01*
X9294715Y35806095D01*
X9247096Y35710857D01*
X9199477Y35663238D01*
X9104239Y35615619D01*
X8866143Y35615619D01*
X8770905Y35663238D01*
X8723286Y35710857D01*
X7643905Y33456619D02*
X7643905Y34456619D01*
X7882000Y34456619D01*
X8024858Y34409000D01*
X8120096Y34313762D01*
X8167715Y34218524D01*
X8215334Y34028048D01*
X8215334Y33885190D01*
X8167715Y33694714D01*
X8120096Y33599476D01*
X8024858Y33504238D01*
X7882000Y33456619D01*
X7643905Y33456619D01*
X9072477Y34456619D02*
X8882000Y34456619D01*
X8786762Y34409000D01*
X8739143Y34361381D01*
X8643905Y34218524D01*
X8596286Y34028048D01*
X8596286Y33647095D01*
X8643905Y33551857D01*
X8691524Y33504238D01*
X8786762Y33456619D01*
X8977239Y33456619D01*
X9072477Y33504238D01*
X9120096Y33551857D01*
X9167715Y33647095D01*
X9167715Y33885190D01*
X9120096Y33980429D01*
X9072477Y34028048D01*
X8977239Y34075667D01*
X8786762Y34075667D01*
X8691524Y34028048D01*
X8643905Y33980429D01*
X8596286Y33885190D01*
X9826667Y14263619D02*
X9826667Y13549333D01*
X9779047Y13406476D01*
X9683809Y13311238D01*
X9540952Y13263619D01*
X9445714Y13263619D01*
X10826667Y13263619D02*
X10255238Y13263619D01*
X10540952Y13263619D02*
X10540952Y14263619D01*
X10445714Y14120762D01*
X10350476Y14025524D01*
X10255238Y13977905D01*
X17954667Y10199619D02*
X17954667Y9485333D01*
X17907047Y9342476D01*
X17811809Y9247238D01*
X17668952Y9199619D01*
X17573714Y9199619D01*
X18383238Y10104381D02*
X18430857Y10152000D01*
X18526095Y10199619D01*
X18764191Y10199619D01*
X18859429Y10152000D01*
X18907048Y10104381D01*
X18954667Y10009143D01*
X18954667Y9913905D01*
X18907048Y9771048D01*
X18335619Y9199619D01*
X18954667Y9199619D01*
X84502667Y9183619D02*
X84502667Y8469333D01*
X84455047Y8326476D01*
X84359809Y8231238D01*
X84216952Y8183619D01*
X84121714Y8183619D01*
X85407429Y8850286D02*
X85407429Y8183619D01*
X85169333Y9231238D02*
X84931238Y8516952D01*
X85550286Y8516952D01*
D13*
X77227715Y7363619D02*
X76656286Y7363619D01*
X76942000Y7363619D02*
X76942000Y8363619D01*
X76846762Y8220762D01*
X76751524Y8125524D01*
X76656286Y8077905D01*
D12*
X9398095Y25947619D02*
X9398095Y25138095D01*
X9445714Y25042857D01*
X9493333Y24995238D01*
X9588571Y24947619D01*
X9779048Y24947619D01*
X9874286Y24995238D01*
X9921905Y25042857D01*
X9969524Y25138095D01*
X9969524Y25947619D01*
X10350476Y25947619D02*
X10969524Y25947619D01*
X10636190Y25566667D01*
X10779048Y25566667D01*
X10874286Y25519048D01*
X10921905Y25471429D01*
X10969524Y25376190D01*
X10969524Y25138095D01*
X10921905Y25042857D01*
X10874286Y24995238D01*
X10779048Y24947619D01*
X10493333Y24947619D01*
X10398095Y24995238D01*
X10350476Y25042857D01*
M02*
