M48
;DRILL file {KiCad 4.0.6} date 04/24/18 14:39:21
;FORMAT={-:-/ absolute / metric / decimal}
FMAT,2
METRIC,TZ
T1C0.300
T2C0.600
T3C0.800
T4C0.900
T5C1.016
T6C1.100
T7C1.200
T8C3.500
%
G90
G05
M71
T1
X1.778Y34.417
X2.032Y36.576
X3.429Y32.004
X3.492Y42.037
X6.223Y43.18
X6.985Y63.246
X6.985Y61.468
X7.874Y39.497
X7.874Y37.211
X7.874Y35.052
X7.874Y32.893
X8.128Y53.213
X8.509Y59.817
X8.763Y59.055
X8.954Y55.689
X8.954Y54.165
X9.398Y48.768
X9.398Y45.72
X9.398Y42.672
X10.414Y38.862
X10.541Y31.496
X12.763Y51.054
X12.827Y68.453
X12.827Y67.183
X12.827Y65.913
X12.827Y64.643
X12.827Y63.373
X12.827Y62.103
X13.208Y38.862
X13.398Y35.687
X13.589Y51.181
X13.652Y10.351
X13.652Y8.128
X14.541Y46.99
X14.605Y42.672
X14.795Y51.625
X14.795Y44.767
X15.176Y27.686
X15.494Y36.703
X15.748Y38.672
X15.748Y35.687
X16.002Y52.324
X16.256Y9.398
X16.383Y21.59
X16.447Y17.272
X16.51Y24.638
X17.272Y52.324
X18.669Y64.643
X18.732Y60.389
X18.796Y59.118
X19.113Y32.131
X19.748Y31.496
X20.383Y30.924
X20.383Y18.034
X20.955Y30.29
X21.018Y14.922
X21.399Y50.863
X21.526Y29.527
X21.717Y21.59
X21.907Y14.097
X21.971Y67.183
X22.098Y55.88
X22.162Y27.749
X22.606Y66.548
X23.05Y32.512
X24.13Y68.072
X24.13Y55.88
X24.701Y31.75
X24.892Y10.477
X25.019Y19.558
X25.019Y15.557
X25.019Y13.462
X25.082Y21.59
X25.146Y16.828
X26.987Y52.006
X27.94Y28.511
X28.448Y36.767
X28.575Y38.672
X28.575Y35.306
X28.638Y43.116
X28.638Y27.813
X28.702Y42.481
X28.765Y48.197
X28.829Y45.402
X28.956Y41.275
X29.591Y67.056
X29.591Y62.992
X29.718Y58.928
X29.718Y56.896
X29.718Y54.864
X29.718Y52.832
X30.29Y20.574
X30.353Y24.638
X30.378Y12.446
X30.48Y17.78
X30.734Y15.113
X31.115Y17.526
X31.242Y43.434
X31.242Y15.875
X31.686Y20.701
X32.194Y58.928
X32.258Y62.992
X32.322Y67.056
X32.322Y54.864
X32.385Y64.897
X32.512Y60.833
X32.639Y14.351
X32.956Y17.526
X33.02Y20.511
X33.084Y18.669
X33.147Y26.543
X33.274Y24.638
X34.29Y48.197
X34.29Y46.291
X34.29Y44.45
X34.29Y42.418
X34.29Y40.64
X34.29Y38.608
X34.29Y36.767
X34.29Y34.861
X34.353Y31.75
X34.989Y40.386
X35.052Y29.083
X36.83Y48.197
X36.83Y36.957
X36.893Y45.91
X36.893Y41.846
X36.893Y40.576
X36.893Y33.972
X36.957Y44.386
X36.957Y37.782
X37.846Y67.056
X37.846Y65.024
X37.91Y60.008
X37.973Y35.814
X38.1Y62.039
X38.506Y24.638
X38.608Y15.545
X38.659Y12.446
X39.116Y20.701
X39.56Y43.434
X39.688Y58.166
X40.322Y58.229
X40.386Y61.976
X40.386Y59.944
X40.386Y54.927
X40.513Y67.056
X40.513Y65.024
X41.148Y17.399
X41.212Y10.414
X41.25Y20.574
X41.25Y12.446
X41.275Y15.557
X42.418Y38.544
X42.481Y48.26
X42.481Y46.228
X42.481Y44.514
X42.481Y42.227
X42.481Y40.831
X42.481Y36.893
X42.481Y34.861
X42.672Y29.019
X43.815Y36.893
X43.942Y12.446
X44.399Y42.367
X44.514Y38.291
X44.577Y37.211
X45.276Y47.752
X45.847Y67.056
X45.847Y62.992
X45.974Y59.944
X46.164Y57.912
X46.164Y57.087
X46.634Y24.638
X46.634Y20.574
X46.634Y12.446
X46.736Y15.342
X46.863Y17.78
X47.561Y20.574
X47.625Y18.415
X47.65Y15.443
X48.578Y57.912
X48.641Y67.056
X48.704Y60.96
X48.768Y62.738
X49.403Y26.607
X49.403Y18.415
X49.466Y24.638
X50.038Y36.386
X50.089Y44.958
X50.089Y43.18
X50.089Y42.469
X50.101Y46.038
X50.101Y43.942
X50.101Y40.322
X50.101Y38.481
X50.292Y49.428
X50.292Y29.083
X50.952Y40.538
X52.273Y44.958
X52.514Y42.481
X52.514Y38.544
X52.73Y43.993
X53.975Y67.056
X54.Y46.939
X54.165Y59.88
X54.165Y53.213
X54.712Y24.638
X54.813Y12.446
X54.864Y15.545
X54.927Y10.414
X56.451Y54.864
X56.515Y59.944
X56.515Y58.928
X56.642Y63.246
X56.706Y67.056
X56.769Y62.103
X57.087Y17.399
X57.467Y10.287
X57.506Y12.446
X57.531Y15.557
X57.556Y20.574
X58.166Y44.069
X58.166Y36.068
X58.229Y42.291
X58.229Y40.195
X58.928Y39.243
X59.436Y57.087
X60.452Y36.068
X60.706Y42.291
X60.706Y39.56
X60.77Y57.15
X62.103Y67.056
X62.103Y62.992
X62.23Y59.944
X62.357Y54.864
X62.547Y58.039
X62.865Y17.462
X62.89Y24.638
X62.89Y12.446
X62.941Y20.574
X63.043Y15.342
X63.703Y17.475
X63.805Y15.494
X64.516Y44.831
X64.77Y60.96
X64.834Y57.912
X64.897Y67.056
X64.897Y62.738
X64.897Y33.528
X65.468Y18.542
X65.532Y32.893
X65.596Y31.75
X65.659Y24.638
X65.722Y50.546
X65.786Y47.752
X65.786Y38.735
X65.849Y45.148
X67.437Y45.085
X68.453Y51.054
X68.834Y45.085
X70.294Y67.056
X70.358Y53.213
X70.421Y59.88
X70.485Y63.119
X70.993Y24.638
X71.056Y42.926
X71.056Y12.446
X71.12Y36.893
X71.12Y33.846
X71.183Y15.494
X71.628Y50.609
X71.691Y57.023
X71.882Y44.958
X72.072Y12.446
X72.771Y59.944
X72.771Y59.245
X72.898Y54.864
X73.025Y67.056
X73.533Y35.75
X73.533Y33.718
X73.558Y17.475
X73.724Y45.085
X73.724Y30.734
X73.787Y38.862
X73.787Y20.574
X73.787Y12.446
X73.787Y9.08
X73.85Y15.557
X75.692Y50.609
X78.041Y45.91
X78.422Y67.056
X78.422Y65.024
X78.613Y60.071
X78.74Y57.658
X79.057Y42.926
X79.057Y36.512
X79.057Y17.589
X79.096Y20.574
X79.121Y22.606
X79.184Y38.862
X79.184Y30.797
X79.184Y26.67
X79.184Y12.446
X79.299Y15.342
X79.375Y57.975
X79.438Y33.528
X79.692Y36.005
X79.908Y17.577
X80.061Y15.342
X80.518Y33.528
X81.026Y60.96
X81.026Y57.912
X81.216Y49.657
X81.216Y48.387
X81.407Y62.865
X81.471Y50.927
X81.788Y42.926
X81.788Y36.83
X81.788Y30.734
X81.788Y18.542
X81.852Y24.638
X81.915Y28.638
X81.978Y10.223
X83.439Y50.927
X85.28Y46.101
X86.741Y59.817
X87.249Y42.926
X87.312Y24.638
X87.376Y33.718
X87.376Y15.43
X87.376Y12.573
X88.519Y50.8
T2
X7.112Y27.94
X7.112Y22.479
X7.112Y18.161
X7.62Y11.43
X7.62Y9.144
X7.874Y16.002
X7.874Y13.97
X9.271Y7.493
X12.954Y22.606
X13.335Y26.162
X13.462Y13.97
X13.589Y16.002
T3
X3.81Y27.94
X3.81Y25.4
X3.81Y22.86
X23.622Y46.736
X23.622Y44.196
X23.622Y41.656
X23.622Y39.116
X23.622Y36.576
X23.622Y34.036
X26.162Y46.736
X26.162Y44.196
X26.162Y41.656
X26.162Y39.116
X26.162Y36.576
X26.162Y34.036
X28.702Y50.546
X28.702Y30.226
X31.242Y50.546
X31.242Y30.226
X33.782Y50.546
X33.782Y30.226
X36.322Y50.546
X36.322Y30.226
X38.862Y50.546
X38.862Y30.226
X41.402Y50.546
X41.402Y30.226
X43.942Y50.546
X43.942Y30.226
X46.482Y50.546
X46.482Y30.226
X49.022Y50.546
X49.022Y32.766
X49.022Y30.226
X51.562Y50.546
X51.562Y32.766
X51.562Y30.226
X54.102Y50.546
X54.102Y32.766
X54.102Y30.226
X56.642Y50.546
X56.642Y48.006
X56.642Y32.766
X56.642Y30.226
X59.182Y50.546
X59.182Y48.006
X59.182Y32.766
X59.182Y30.226
X61.722Y50.546
X61.722Y48.006
X61.722Y32.766
X61.722Y30.226
T4
X3.556Y54.864
X3.556Y52.324
X3.556Y49.784
X3.556Y47.244
X6.096Y57.404
X6.096Y54.864
X6.096Y47.244
X28.702Y6.096
X28.702Y3.556
X31.242Y6.096
X31.242Y3.556
X33.782Y6.096
X33.782Y3.556
X36.322Y6.096
X36.322Y3.556
X38.862Y6.096
X38.862Y3.556
X41.402Y6.096
X41.402Y3.556
X43.942Y6.096
X43.942Y3.556
X46.482Y6.096
X46.482Y3.556
X49.022Y6.096
X49.022Y3.556
X51.562Y6.096
X51.562Y3.556
X54.102Y6.096
X54.102Y3.556
X56.642Y6.096
X56.642Y3.556
X59.182Y6.096
X59.182Y3.556
X61.722Y6.096
X61.722Y3.556
X64.262Y6.096
X64.262Y3.556
X66.802Y6.096
X66.802Y3.556
X69.342Y6.096
X69.342Y3.556
X71.882Y6.096
X71.882Y3.556
X74.422Y6.096
X74.422Y3.556
X76.962Y6.096
X76.962Y3.556
T5
X3.556Y57.404
X6.096Y52.324
X6.096Y49.784
T6
X3.81Y11.43
X20.32Y3.81
T7
X3.81Y15.24
X12.7Y3.81
X16.51Y3.81
T8
X3.25Y66.75
X3.25Y3.25
X86.75Y66.75
X86.75Y3.25
T0
M30
