G04 #@! TF.FileFunction,Copper,L1,Top,Signal*
%FSLAX46Y46*%
G04 Gerber Fmt 4.6, Leading zero omitted, Abs format (unit mm)*
G04 Created by KiCad (PCBNEW 4.0.6) date 04/24/18 14:39:14*
%MOMM*%
%LPD*%
G01*
G04 APERTURE LIST*
%ADD10C,0.100000*%
%ADD11C,6.000000*%
%ADD12O,1.600000X1.600000*%
%ADD13R,1.600000X1.600000*%
%ADD14C,1.600000*%
%ADD15R,1.500000X1.500000*%
%ADD16R,2.000000X2.000000*%
%ADD17C,2.000000*%
%ADD18R,1.400000X1.400000*%
%ADD19C,1.400000*%
%ADD20C,0.400000*%
%ADD21C,1.000000*%
%ADD22C,0.600000*%
%ADD23C,0.450000*%
%ADD24C,1.000000*%
%ADD25C,0.300000*%
G04 APERTURE END LIST*
D10*
D11*
X86750000Y66750000D03*
D12*
X54102000Y30226000D03*
X49022000Y32766000D03*
X51562000Y32766000D03*
X54102000Y32766000D03*
X56642000Y32766000D03*
X59182000Y32766000D03*
D13*
X61722000Y32766000D03*
D12*
X38862000Y30226000D03*
X41402000Y30226000D03*
X43942000Y30226000D03*
X46482000Y30226000D03*
X49022000Y30226000D03*
X51562000Y30226000D03*
X61722000Y30226000D03*
X31242000Y30226000D03*
X56642000Y30226000D03*
X33782000Y30226000D03*
X59182000Y30226000D03*
X36322000Y30226000D03*
D13*
X28702000Y30226000D03*
D12*
X23622000Y34036000D03*
X23622000Y46736000D03*
X23622000Y44196000D03*
X23622000Y41656000D03*
X23622000Y39116000D03*
X23622000Y36576000D03*
D13*
X26162000Y34036000D03*
D12*
X26162000Y36576000D03*
X26162000Y39116000D03*
X26162000Y41656000D03*
X26162000Y44196000D03*
X26162000Y46736000D03*
X56642000Y48006000D03*
X59182000Y48006000D03*
D13*
X61722000Y48006000D03*
X61722000Y50546000D03*
D12*
X36322000Y50546000D03*
X59182000Y50546000D03*
X33782000Y50546000D03*
X56642000Y50546000D03*
X31242000Y50546000D03*
X54102000Y50546000D03*
X28702000Y50546000D03*
X51562000Y50546000D03*
X49022000Y50546000D03*
X46482000Y50546000D03*
X43942000Y50546000D03*
X41402000Y50546000D03*
X38862000Y50546000D03*
D13*
X6096000Y47244000D03*
D14*
X3556000Y47244000D03*
X6096000Y49784000D03*
X3556000Y49784000D03*
X6096000Y52324000D03*
X3556000Y52324000D03*
X6096000Y54864000D03*
X3556000Y54864000D03*
X6096000Y57404000D03*
X3556000Y57404000D03*
D11*
X3250000Y3250000D03*
X86750000Y3250000D03*
X3250000Y66750000D03*
D15*
X12018000Y9144000D03*
X9318000Y9144000D03*
X12018000Y11430000D03*
X9318000Y11430000D03*
X6176000Y40513000D03*
X3476000Y40513000D03*
X6176000Y38354000D03*
X3476000Y38354000D03*
X6176000Y36068000D03*
X3476000Y36068000D03*
X6176000Y33909000D03*
X3476000Y33909000D03*
D16*
X3810000Y11430000D03*
D17*
X3810000Y15240000D03*
D16*
X20320000Y3810000D03*
D17*
X12700000Y3810000D03*
X16510000Y3810000D03*
D13*
X76962000Y6096000D03*
D12*
X76962000Y3556000D03*
X74422000Y6096000D03*
X74422000Y3556000D03*
X71882000Y6096000D03*
X71882000Y3556000D03*
X69342000Y6096000D03*
X69342000Y3556000D03*
X66802000Y6096000D03*
X66802000Y3556000D03*
X64262000Y6096000D03*
X64262000Y3556000D03*
X61722000Y6096000D03*
X61722000Y3556000D03*
X59182000Y6096000D03*
X59182000Y3556000D03*
X56642000Y6096000D03*
X56642000Y3556000D03*
X54102000Y6096000D03*
X54102000Y3556000D03*
X51562000Y6096000D03*
X51562000Y3556000D03*
X49022000Y6096000D03*
X49022000Y3556000D03*
X46482000Y6096000D03*
X46482000Y3556000D03*
X43942000Y6096000D03*
X43942000Y3556000D03*
X41402000Y6096000D03*
X41402000Y3556000D03*
X38862000Y6096000D03*
X38862000Y3556000D03*
X36322000Y6096000D03*
X36322000Y3556000D03*
X33782000Y6096000D03*
X33782000Y3556000D03*
X31242000Y6096000D03*
X31242000Y3556000D03*
X28702000Y6096000D03*
X28702000Y3556000D03*
D18*
X3810000Y22860000D03*
D19*
X3810000Y27940000D03*
X3810000Y25400000D03*
D20*
X34290000Y44450000D03*
X28638500Y43116500D03*
X36830000Y36957000D03*
X42481500Y36893500D03*
X28956000Y41275000D03*
X34290000Y40640000D03*
X36957000Y44386500D03*
X36893500Y40576500D03*
X42481500Y44513500D03*
X42481500Y40830500D03*
X42481500Y48260000D03*
X36830000Y48196500D03*
X34290000Y48196500D03*
X28765500Y48196500D03*
X41275000Y15557500D03*
X38608000Y15544800D03*
X52514500Y42481500D03*
X58229500Y42291000D03*
X54000400Y46939200D03*
X44399200Y42367200D03*
X50088800Y42468800D03*
X38506400Y24638000D03*
X41249600Y20574000D03*
X54711600Y24638000D03*
X54864000Y15544800D03*
X57556400Y20574000D03*
X71183500Y15494000D03*
X70993000Y24638000D03*
X71120000Y33845500D03*
X71056500Y42926000D03*
X73787000Y20574000D03*
X73787000Y38862000D03*
X87376000Y15430500D03*
X87312500Y24638000D03*
X87376000Y33718500D03*
X24130000Y68072000D03*
X32512000Y60833000D03*
X32385000Y64897000D03*
X37846000Y67056000D03*
X37846000Y65024000D03*
X37909500Y60007500D03*
X40513000Y67056000D03*
X40513000Y65024000D03*
X54165500Y59880500D03*
X53975000Y67056000D03*
X56705500Y67056000D03*
X56769000Y62103000D03*
X70421500Y59880500D03*
X70294500Y67056000D03*
X73025000Y67056000D03*
X86741000Y59817000D03*
X25082500Y21590000D03*
X25019000Y19558000D03*
X25019000Y15557500D03*
X87249000Y42926000D03*
X81216500Y49657000D03*
X78041500Y45910500D03*
X65722500Y50546000D03*
X60706000Y39560500D03*
X40322500Y58229500D03*
X40386000Y61976000D03*
X71691500Y57023000D03*
X73533000Y33718500D03*
X57531000Y15557500D03*
X73850500Y15557500D03*
X56515000Y58928000D03*
D21*
X7620000Y9144000D03*
X7874000Y16002000D03*
X7874000Y13970000D03*
X7112000Y18161000D03*
D20*
X30353000Y24638000D03*
X33274000Y24638000D03*
X41148000Y17399000D03*
X41249600Y12446000D03*
X49466500Y24638000D03*
X49403000Y18415000D03*
X42418000Y38544500D03*
X42481500Y42227500D03*
X42481500Y46228000D03*
X34290000Y38608000D03*
X34290000Y42418000D03*
X34290000Y46291500D03*
X57467500Y10287000D03*
X73558400Y17475200D03*
X79095600Y20574000D03*
X50101500Y43942000D03*
X50101500Y40322500D03*
X38658800Y12446000D03*
X46634400Y20574000D03*
X46634400Y24638000D03*
X54813200Y12446000D03*
X57505600Y12446000D03*
X62941200Y20574000D03*
X62890400Y24638000D03*
X71056500Y12446000D03*
X65468500Y18542000D03*
X65659000Y24638000D03*
X65595500Y31750000D03*
X71120000Y36893500D03*
X73787000Y9080500D03*
X73787000Y12446000D03*
X79121000Y22606000D03*
X79184500Y26670000D03*
X79184500Y30797500D03*
X87376000Y12573000D03*
X81788000Y18542000D03*
X81851500Y24638000D03*
X81788000Y30734000D03*
X81788000Y36830000D03*
X79184500Y38862000D03*
X22098000Y55880000D03*
X29718000Y52832000D03*
X29591000Y67056000D03*
X29591000Y62992000D03*
X29718000Y56896000D03*
X32321500Y54864000D03*
X32194500Y58928000D03*
X32258000Y62992000D03*
X32321500Y67056000D03*
X45847000Y62992000D03*
X45847000Y67056000D03*
X48641000Y67056000D03*
X48704500Y60960000D03*
X48577500Y57912000D03*
X62103000Y62992000D03*
X62103000Y67056000D03*
X64770000Y60960000D03*
X64833500Y57912000D03*
X64897000Y67056000D03*
X78422500Y67056000D03*
X78422500Y65024000D03*
X81026000Y57912000D03*
X81026000Y60960000D03*
X30289500Y20574000D03*
X25146000Y16827500D03*
X25019000Y13462000D03*
X41211500Y10414000D03*
X24892000Y10477500D03*
X16446500Y17272000D03*
X16383000Y21590000D03*
X15176500Y27686000D03*
D22*
X3492500Y42037000D03*
D20*
X10414000Y38862000D03*
X9398000Y42672000D03*
X9398000Y48768000D03*
X79057500Y42926000D03*
X81788000Y42926000D03*
X85280500Y46101000D03*
X81216500Y48387000D03*
X71628000Y50609500D03*
X75692000Y50609500D03*
X64516000Y44831000D03*
X60706000Y42291000D03*
X60452000Y36068000D03*
X58166000Y36068000D03*
X58229500Y40195500D03*
X58166000Y44069000D03*
X50038000Y36385500D03*
X42481500Y34861500D03*
X34290000Y34861500D03*
X9398000Y45720000D03*
X10541000Y31496000D03*
X16510000Y24638000D03*
X16256000Y9398000D03*
X33083500Y18669000D03*
X32956500Y17526000D03*
X73533000Y35750500D03*
X57086500Y17399000D03*
X64897000Y33528000D03*
X68453000Y51054000D03*
X78613000Y60071000D03*
X62230000Y59944000D03*
X45974000Y59944000D03*
D22*
X12827000Y63373000D03*
D21*
X9271000Y7493000D03*
D22*
X6985000Y63246000D03*
X3429000Y32004000D03*
D21*
X13335000Y26162000D03*
X12954000Y22606000D03*
X13589000Y16002000D03*
X13462000Y13970000D03*
D20*
X83439000Y50927000D03*
X46634400Y12446000D03*
X46863000Y17780000D03*
X73723500Y30734000D03*
X79057500Y36512500D03*
X68834000Y45085000D03*
X28448000Y36766500D03*
X71882000Y44958000D03*
X30378400Y12446000D03*
X30480000Y17780000D03*
X62890400Y12446000D03*
X79184500Y12446000D03*
X22606000Y66548000D03*
X29718000Y54864000D03*
X29718000Y58928000D03*
X21717000Y21590000D03*
X14605000Y42672000D03*
X73723500Y45085000D03*
X58928000Y39243000D03*
X52514500Y38544500D03*
X44513500Y38290500D03*
X50101500Y38481000D03*
X50101500Y46037500D03*
X45275500Y47752000D03*
X34290000Y36766500D03*
X21907500Y14097000D03*
X79057500Y17589500D03*
X62865000Y17462500D03*
D21*
X7620000Y11430000D03*
D22*
X18669000Y64643000D03*
X12827000Y62103000D03*
X6985000Y61468000D03*
X6223000Y43180000D03*
X15748000Y35687000D03*
D20*
X31115000Y17526000D03*
X39560500Y43434000D03*
X31242000Y43434000D03*
X34988500Y40386000D03*
X79692500Y36004500D03*
X30734000Y15113000D03*
X65849500Y45148500D03*
X79438500Y33528000D03*
X46736000Y15341600D03*
X63042800Y15341600D03*
X79298800Y15341600D03*
X79908400Y17576800D03*
X65786000Y47752000D03*
X31242000Y15875000D03*
X67437000Y45085000D03*
X80518000Y33528000D03*
X80060800Y15341600D03*
X63804800Y15494000D03*
X47650400Y15443200D03*
X37973000Y35814000D03*
X28575000Y35306000D03*
X63703200Y17475200D03*
X33147000Y26543000D03*
X47625000Y18415000D03*
X13652500Y8128000D03*
X13652500Y10350500D03*
X50292000Y49428400D03*
D21*
X7112000Y22479000D03*
X7112000Y27940000D03*
D20*
X59436000Y57086500D03*
X39687500Y58166000D03*
X72771000Y59245500D03*
X13398500Y35687000D03*
X14541500Y46990000D03*
X21399500Y50863500D03*
X12763500Y51054000D03*
X26987500Y52006500D03*
X38100000Y62039500D03*
X7874000Y39497000D03*
X7874000Y37211000D03*
X7874000Y35052000D03*
X7874000Y32893000D03*
X13589000Y51181000D03*
X14795500Y51625500D03*
X16002000Y52324000D03*
X17272000Y52324000D03*
X36957000Y37782500D03*
X36893500Y41846500D03*
X35052000Y29083000D03*
X36893500Y45910500D03*
X28575000Y38671500D03*
X33020000Y20510500D03*
X28702000Y42481500D03*
X28829000Y45402500D03*
X31686500Y20701000D03*
X81978500Y10223500D03*
X72072500Y12446000D03*
X81915000Y28638500D03*
X43942000Y12446000D03*
X39116000Y20701000D03*
X36893500Y33972500D03*
X50292000Y29083000D03*
X47561500Y20574000D03*
X54927500Y10414000D03*
X70358000Y53213000D03*
X54165500Y53213000D03*
X88519000Y50800000D03*
X18732500Y60388500D03*
X24701500Y31750000D03*
X23050500Y32512000D03*
X18796000Y59118500D03*
X19113500Y32131000D03*
X19748500Y31496000D03*
X20383500Y30924500D03*
X20955000Y30289500D03*
X21526500Y29527500D03*
X22161500Y27749500D03*
X12827000Y64643000D03*
X32639000Y14351000D03*
X28638500Y27813000D03*
X12827000Y65913000D03*
X12827000Y68453000D03*
X27940000Y28511500D03*
X12827000Y67183000D03*
X34353500Y31750000D03*
X72898000Y54864000D03*
X40386000Y54927500D03*
X56451500Y54864000D03*
X81470500Y50927000D03*
X49403000Y26606500D03*
X62357000Y54864000D03*
X8763000Y59055000D03*
X2032000Y36576000D03*
X1778000Y34417000D03*
X8509000Y59817000D03*
X78740000Y57658000D03*
X46164500Y57912000D03*
X60769500Y57150000D03*
X44577000Y37211000D03*
X50952400Y40538400D03*
X50088800Y43180000D03*
X52273200Y44958000D03*
X79375000Y57975500D03*
X46164500Y57086500D03*
X62547500Y58039000D03*
X81407000Y62865000D03*
X72771000Y59944000D03*
X64897000Y62738000D03*
X56515000Y59944000D03*
X48768000Y62738000D03*
X40386000Y59944000D03*
X15748000Y38671500D03*
X8953500Y54165500D03*
X8128000Y53213000D03*
X21018500Y14922500D03*
X15494000Y36703000D03*
X8953500Y55689500D03*
X20383500Y18034000D03*
X70485000Y63119000D03*
X56642000Y63246000D03*
X65532000Y32893000D03*
X65786000Y38735000D03*
X42672000Y29019500D03*
X43815000Y36893500D03*
X52730400Y43992800D03*
X50088800Y44958000D03*
X24130000Y55880000D03*
X21971000Y67183000D03*
X14795500Y44767500D03*
X13208000Y38862000D03*
D23*
X3476000Y40513000D02*
X3476000Y42020500D01*
X3476000Y42020500D02*
X3492500Y42037000D01*
D24*
X9318000Y9144000D02*
X9318000Y7540000D01*
X9318000Y7540000D02*
X9271000Y7493000D01*
X9318000Y11430000D02*
X9318000Y9144000D01*
D23*
X3476000Y33909000D02*
X3429000Y33862000D01*
X3429000Y33862000D02*
X3429000Y32004000D01*
X3476000Y36068000D02*
X3476000Y33909000D01*
X3476000Y38354000D02*
X3476000Y36068000D01*
X3476000Y40513000D02*
X3476000Y38354000D01*
D25*
X28702000Y30226000D02*
X28702000Y28638500D01*
X31115000Y26225500D02*
X31115000Y17526000D01*
X28702000Y28638500D02*
X31115000Y26225500D01*
X38862000Y50546000D02*
X38862000Y44132500D01*
X38862000Y44132500D02*
X39560500Y43434000D01*
X31242000Y50546000D02*
X31242000Y43434000D01*
X34988500Y49339500D02*
X33782000Y50546000D01*
X34988500Y42926000D02*
X34988500Y49339500D01*
X34988500Y41529000D02*
X34988500Y42926000D01*
X34988500Y40386000D02*
X34988500Y41529000D01*
X41402000Y31559500D02*
X41402000Y30226000D01*
X42354500Y32512000D02*
X41402000Y31559500D01*
X45402500Y32512000D02*
X42354500Y32512000D01*
X47307500Y34417000D02*
X45402500Y32512000D01*
X58801000Y34417000D02*
X47307500Y34417000D01*
X59817000Y35433000D02*
X58801000Y34417000D01*
X59817000Y36766500D02*
X59817000Y35433000D01*
X62484000Y39433500D02*
X59817000Y36766500D01*
X69786500Y39433500D02*
X62484000Y39433500D01*
X71945500Y37274500D02*
X69786500Y39433500D01*
X79184500Y37274500D02*
X71945500Y37274500D01*
X79629000Y36830000D02*
X79184500Y37274500D01*
X79629000Y36068000D02*
X79629000Y36830000D01*
X79692500Y36004500D02*
X79629000Y36068000D01*
X46736000Y15341600D02*
X46583600Y15341600D01*
X33528000Y15113000D02*
X30734000Y15113000D01*
X34036000Y14605000D02*
X33528000Y15113000D01*
X45847000Y14605000D02*
X34036000Y14605000D01*
X46583600Y15341600D02*
X45847000Y14605000D01*
X66357500Y45148500D02*
X65849500Y45148500D01*
X67754500Y43751500D02*
X66357500Y45148500D01*
X79502000Y43751500D02*
X67754500Y43751500D01*
X80454500Y42799000D02*
X79502000Y43751500D01*
X80454500Y34544000D02*
X80454500Y42799000D01*
X79438500Y33528000D02*
X80454500Y34544000D01*
X63042800Y15341600D02*
X62026800Y14325600D01*
X47752000Y14325600D02*
X46736000Y15341600D01*
X62026800Y14325600D02*
X47752000Y14325600D01*
X64058800Y14325600D02*
X63042800Y15341600D01*
X79298800Y15341600D02*
X79298800Y14681200D01*
X79298800Y14681200D02*
X78943200Y14325600D01*
X78943200Y14325600D02*
X64058800Y14325600D01*
X36322000Y28702000D02*
X36322000Y30226000D01*
X35153600Y27533600D02*
X36322000Y28702000D01*
X35153600Y22504400D02*
X35153600Y27533600D01*
X38049200Y19608800D02*
X35153600Y22504400D01*
X46990000Y19608800D02*
X38049200Y19608800D01*
X47142400Y19761200D02*
X46990000Y19608800D01*
X50190400Y19761200D02*
X47142400Y19761200D01*
X51104800Y18846800D02*
X50190400Y19761200D01*
X63347600Y18846800D02*
X51104800Y18846800D01*
X63754000Y19253200D02*
X63347600Y18846800D01*
X65989200Y19253200D02*
X63754000Y19253200D01*
X66852800Y18389600D02*
X65989200Y19253200D01*
X79603600Y18389600D02*
X66852800Y18389600D01*
X79908400Y18084800D02*
X79603600Y18389600D01*
X79908400Y17576800D02*
X79908400Y18084800D01*
X38862000Y30226000D02*
X38862000Y31686500D01*
X65151000Y47117000D02*
X65786000Y47752000D01*
X65151000Y42926000D02*
X65151000Y47117000D01*
X59182000Y36957000D02*
X65151000Y42926000D01*
X59182000Y35687000D02*
X59182000Y36957000D01*
X58547000Y35052000D02*
X59182000Y35687000D01*
X47053500Y35052000D02*
X58547000Y35052000D01*
X45148500Y33147000D02*
X47053500Y35052000D01*
X40322500Y33147000D02*
X45148500Y33147000D01*
X38862000Y31686500D02*
X40322500Y33147000D01*
X47650400Y15443200D02*
X47650400Y15468600D01*
X31877000Y16510000D02*
X31242000Y15875000D01*
X46609000Y16510000D02*
X31877000Y16510000D01*
X47650400Y15468600D02*
X46609000Y16510000D01*
X67437000Y45085000D02*
X68135500Y44386500D01*
X68135500Y44386500D02*
X79756000Y44386500D01*
X79756000Y44386500D02*
X81089500Y43053000D01*
X81089500Y43053000D02*
X81089500Y34099500D01*
X81089500Y34099500D02*
X80518000Y33528000D01*
X63804800Y16306800D02*
X64160400Y16662400D01*
X80060800Y16154400D02*
X80060800Y15341600D01*
X79552800Y16662400D02*
X80060800Y16154400D01*
X64160400Y16662400D02*
X79552800Y16662400D01*
X47650400Y15443200D02*
X47650400Y16306800D01*
X47650400Y16306800D02*
X48006000Y16662400D01*
X63804800Y16306800D02*
X63804800Y15494000D01*
X63449200Y16662400D02*
X63804800Y16306800D01*
X48006000Y16662400D02*
X63449200Y16662400D01*
X33782000Y26822400D02*
X33782000Y30226000D01*
X34594800Y26009600D02*
X33782000Y26822400D01*
X34594800Y22199600D02*
X34594800Y26009600D01*
X37795200Y18999200D02*
X34594800Y22199600D01*
X47251998Y18999200D02*
X37795200Y18999200D01*
X47455198Y19202400D02*
X47251998Y18999200D01*
X49784000Y19202400D02*
X47455198Y19202400D01*
X50749200Y18237200D02*
X49784000Y19202400D01*
X63500000Y18237200D02*
X50749200Y18237200D01*
X63754000Y17983200D02*
X63500000Y18237200D01*
X63754000Y17526000D02*
X63754000Y17983200D01*
X63703200Y17475200D02*
X63754000Y17526000D01*
X33909000Y25781000D02*
X33147000Y26543000D01*
X33909000Y21971000D02*
X33909000Y25781000D01*
X37465000Y18415000D02*
X33909000Y21971000D01*
X40894000Y18415000D02*
X37465000Y18415000D01*
X46355000Y18415000D02*
X40894000Y18415000D01*
X47625000Y18415000D02*
X46355000Y18415000D01*
X12018000Y9144000D02*
X12636500Y9144000D01*
X12636500Y9144000D02*
X13652500Y8128000D01*
X13652500Y10350500D02*
X12573000Y11430000D01*
X12573000Y11430000D02*
X12018000Y11430000D01*
D24*
X7112000Y27940000D02*
X7112000Y22479000D01*
D25*
X58864500Y56515000D02*
X58801000Y56515000D01*
X59436000Y57086500D02*
X58864500Y56515000D01*
X58801000Y56515000D02*
X41021000Y56515000D01*
X39687500Y57848500D02*
X39687500Y58166000D01*
X41021000Y56515000D02*
X39687500Y57848500D01*
X70040500Y56515000D02*
X58801000Y56515000D01*
X72771000Y59245500D02*
X70040500Y56515000D01*
X22542500Y52006500D02*
X26987500Y52006500D01*
X21399500Y50863500D02*
X22542500Y52006500D01*
X26987500Y52006500D02*
X37401500Y52006500D01*
X37401500Y52006500D02*
X39052500Y53657500D01*
X39052500Y53657500D02*
X39052500Y61087000D01*
X39052500Y61087000D02*
X38100000Y62039500D01*
X7874000Y39497000D02*
X6858000Y40513000D01*
X6858000Y40513000D02*
X6176000Y40513000D01*
X6176000Y38354000D02*
X6731000Y38354000D01*
X6731000Y38354000D02*
X7874000Y37211000D01*
X7874000Y35052000D02*
X6858000Y36068000D01*
X6858000Y36068000D02*
X6176000Y36068000D01*
X6176000Y33909000D02*
X6858000Y33909000D01*
X6858000Y33909000D02*
X7874000Y32893000D01*
X23622000Y34036000D02*
X23241000Y34036000D01*
X23241000Y34036000D02*
X17208500Y40068500D01*
X13589000Y50165000D02*
X13589000Y51181000D01*
X17208500Y46545500D02*
X13589000Y50165000D01*
X17208500Y40068500D02*
X17208500Y46545500D01*
X23622000Y36576000D02*
X23177500Y36576000D01*
X23177500Y36576000D02*
X18351500Y41402000D01*
X14795500Y50609500D02*
X14795500Y51625500D01*
X18351500Y47053500D02*
X14795500Y50609500D01*
X18351500Y41402000D02*
X18351500Y47053500D01*
X23622000Y39116000D02*
X23241000Y39116000D01*
X23241000Y39116000D02*
X19558000Y42799000D01*
X19558000Y42799000D02*
X19558000Y47561500D01*
X19558000Y47561500D02*
X16002000Y51117500D01*
X16002000Y51117500D02*
X16002000Y52324000D01*
X23622000Y41656000D02*
X22669500Y41656000D01*
X17272000Y51562000D02*
X17272000Y52324000D01*
X20701000Y48133000D02*
X17272000Y51562000D01*
X20701000Y43624500D02*
X20701000Y48133000D01*
X22669500Y41656000D02*
X20701000Y43624500D01*
X35052000Y33718500D02*
X35052000Y29083000D01*
X35750500Y34417000D02*
X35052000Y33718500D01*
X35750500Y39370000D02*
X35750500Y34417000D01*
X36258500Y39878000D02*
X35750500Y39370000D01*
X36258500Y45275500D02*
X36258500Y39878000D01*
X36893500Y45910500D02*
X36258500Y45275500D01*
X32321500Y21209000D02*
X33020000Y20510500D01*
X32321500Y26797000D02*
X32321500Y21209000D01*
X32512000Y26987500D02*
X32321500Y26797000D01*
X32512000Y31242000D02*
X32512000Y26987500D01*
X29972000Y33782000D02*
X32512000Y31242000D01*
X29972000Y41211500D02*
X29972000Y33782000D01*
X28702000Y42481500D02*
X29972000Y41211500D01*
X27813000Y44386500D02*
X28829000Y45402500D01*
X27813000Y42354500D02*
X27813000Y44386500D01*
X28321000Y41846500D02*
X27813000Y42354500D01*
X28321000Y40576500D02*
X28321000Y41846500D01*
X29337000Y39560500D02*
X28321000Y40576500D01*
X29337000Y32067500D02*
X29337000Y39560500D01*
X29972000Y31432500D02*
X29337000Y32067500D01*
X29972000Y28257500D02*
X29972000Y31432500D01*
X31686500Y26543000D02*
X29972000Y28257500D01*
X31686500Y20701000D02*
X31686500Y26543000D01*
X64262000Y6096000D02*
X66357500Y8191500D01*
X79946500Y8191500D02*
X81978500Y10223500D01*
X66357500Y8191500D02*
X79946500Y8191500D01*
X64262000Y3556000D02*
X62992000Y4826000D01*
X72072500Y10160000D02*
X72072500Y12446000D01*
X70739000Y8826500D02*
X72072500Y10160000D01*
X64325500Y8826500D02*
X70739000Y8826500D01*
X62992000Y7493000D02*
X64325500Y8826500D01*
X62992000Y4826000D02*
X62992000Y7493000D01*
X61722000Y6096000D02*
X61722000Y7556500D01*
X81026000Y27749500D02*
X81915000Y28638500D01*
X81026000Y15049500D02*
X81026000Y27749500D01*
X79438500Y13462000D02*
X81026000Y15049500D01*
X70612000Y13462000D02*
X79438500Y13462000D01*
X70104000Y12954000D02*
X70612000Y13462000D01*
X70104000Y11303000D02*
X70104000Y12954000D01*
X68453000Y9652000D02*
X70104000Y11303000D01*
X63817500Y9652000D02*
X68453000Y9652000D01*
X61722000Y7556500D02*
X63817500Y9652000D01*
X61722000Y2413000D02*
X61722000Y3556000D01*
X60769500Y1460500D02*
X61722000Y2413000D01*
X48831500Y1460500D02*
X60769500Y1460500D01*
X47752000Y2540000D02*
X48831500Y1460500D01*
X47752000Y8636000D02*
X47752000Y2540000D01*
X43942000Y12446000D02*
X47752000Y8636000D01*
X37592000Y22225000D02*
X39116000Y20701000D01*
X37592000Y33274000D02*
X37592000Y22225000D01*
X36893500Y33972500D02*
X37592000Y33274000D01*
X74422000Y3556000D02*
X74422000Y2413000D01*
X70739000Y52832000D02*
X70358000Y53213000D01*
X87376000Y52832000D02*
X70739000Y52832000D01*
X89154000Y51054000D02*
X87376000Y52832000D01*
X89154000Y8509000D02*
X89154000Y51054000D01*
X88265000Y7620000D02*
X89154000Y8509000D01*
X82931000Y7620000D02*
X88265000Y7620000D01*
X81026000Y5715000D02*
X82931000Y7620000D01*
X81026000Y3302000D02*
X81026000Y5715000D01*
X79248000Y1524000D02*
X81026000Y3302000D01*
X75311000Y1524000D02*
X79248000Y1524000D01*
X74422000Y2413000D02*
X75311000Y1524000D01*
X72707500Y7620000D02*
X71882000Y6794500D01*
X81343500Y7620000D02*
X72707500Y7620000D01*
X81915000Y8191500D02*
X81343500Y7620000D01*
X87693500Y8191500D02*
X81915000Y8191500D01*
X88519000Y9017000D02*
X87693500Y8191500D01*
X88519000Y43624500D02*
X88519000Y9017000D01*
X86614000Y45529500D02*
X88519000Y43624500D01*
X86614000Y51816000D02*
X86614000Y45529500D01*
X86296500Y52133500D02*
X86614000Y51816000D01*
X70231000Y52133500D02*
X86296500Y52133500D01*
X69723000Y52641500D02*
X70231000Y52133500D01*
X54737000Y52641500D02*
X69723000Y52641500D01*
X54165500Y53213000D02*
X54737000Y52641500D01*
X71882000Y6794500D02*
X71882000Y6096000D01*
X43942000Y3556000D02*
X42672000Y4826000D01*
X26670000Y29781500D02*
X24701500Y31750000D01*
X26670000Y23749000D02*
X26670000Y29781500D01*
X27686000Y22733000D02*
X26670000Y23749000D01*
X27686000Y12382500D02*
X27686000Y22733000D01*
X28384500Y11684000D02*
X27686000Y12382500D01*
X37909500Y11684000D02*
X28384500Y11684000D01*
X42672000Y6921500D02*
X37909500Y11684000D01*
X42672000Y4826000D02*
X42672000Y6921500D01*
X41402000Y6096000D02*
X41402000Y6858000D01*
X41402000Y6858000D02*
X37147500Y11112500D01*
X37147500Y11112500D02*
X28003500Y11112500D01*
X28003500Y11112500D02*
X27051000Y12065000D01*
X27051000Y12065000D02*
X27051000Y22415500D01*
X27051000Y22415500D02*
X26098500Y23368000D01*
X26098500Y23368000D02*
X26098500Y29464000D01*
X26098500Y29464000D02*
X23050500Y32512000D01*
X36766500Y10541000D02*
X34925000Y10541000D01*
X40132000Y4826000D02*
X40132000Y7239000D01*
X40132000Y7239000D02*
X40068500Y7239000D01*
X40068500Y7239000D02*
X36766500Y10541000D01*
X41402000Y3556000D02*
X40132000Y4826000D01*
X22288500Y32131000D02*
X19113500Y32131000D01*
X25463500Y28956000D02*
X22288500Y32131000D01*
X25527000Y28956000D02*
X25463500Y28956000D01*
X25527000Y23114000D02*
X25527000Y28956000D01*
X26479500Y22161500D02*
X25527000Y23114000D01*
X26479500Y11620500D02*
X26479500Y22161500D01*
X27559000Y10541000D02*
X26479500Y11620500D01*
X34925000Y10541000D02*
X27559000Y10541000D01*
X38862000Y7556500D02*
X38862000Y6096000D01*
X36512500Y9906000D02*
X38862000Y7556500D01*
X27305000Y9906000D02*
X36512500Y9906000D01*
X25844500Y11366500D02*
X27305000Y9906000D01*
X25844500Y21844000D02*
X25844500Y11366500D01*
X24892000Y22796500D02*
X25844500Y21844000D01*
X24892000Y28702000D02*
X24892000Y22796500D01*
X22098000Y31496000D02*
X24892000Y28702000D01*
X19748500Y31496000D02*
X22098000Y31496000D01*
X38862000Y3556000D02*
X37592000Y4826000D01*
X21844000Y30924500D02*
X20383500Y30924500D01*
X24320500Y28448000D02*
X21844000Y30924500D01*
X24320500Y12001500D02*
X24320500Y28448000D01*
X26987500Y9334500D02*
X24320500Y12001500D01*
X35623500Y9334500D02*
X26987500Y9334500D01*
X37592000Y7366000D02*
X35623500Y9334500D01*
X37592000Y4826000D02*
X37592000Y7366000D01*
X36322000Y7366000D02*
X36322000Y6096000D01*
X34925000Y8763000D02*
X36322000Y7366000D01*
X24765000Y8763000D02*
X34925000Y8763000D01*
X23749000Y9779000D02*
X24765000Y8763000D01*
X23749000Y28194000D02*
X23749000Y9779000D01*
X21653500Y30289500D02*
X23749000Y28194000D01*
X20955000Y30289500D02*
X21653500Y30289500D01*
X36322000Y3556000D02*
X35052000Y4826000D01*
X23177500Y27876500D02*
X21526500Y29527500D01*
X23177500Y9271000D02*
X23177500Y27876500D01*
X24257000Y8191500D02*
X23177500Y9271000D01*
X34107498Y8191500D02*
X24257000Y8191500D01*
X35052000Y7246998D02*
X34107498Y8191500D01*
X35052000Y4826000D02*
X35052000Y7246998D01*
X33782000Y6921500D02*
X33782000Y6096000D01*
X33083500Y7620000D02*
X33782000Y6921500D01*
X23876000Y7620000D02*
X33083500Y7620000D01*
X22542500Y8953500D02*
X23876000Y7620000D01*
X22542500Y27368500D02*
X22542500Y8953500D01*
X22161500Y27749500D02*
X22542500Y27368500D01*
X24892000Y35306000D02*
X26162000Y34036000D01*
X22860000Y35306000D02*
X24892000Y35306000D01*
X17780000Y40386000D02*
X22860000Y35306000D01*
X17780000Y46799500D02*
X17780000Y40386000D01*
X14160500Y50419000D02*
X17780000Y46799500D01*
X14160500Y63309500D02*
X14160500Y50419000D01*
X12827000Y64643000D02*
X14160500Y63309500D01*
X30289500Y14351000D02*
X32639000Y14351000D01*
X29591000Y15049500D02*
X30289500Y14351000D01*
X29591000Y16065500D02*
X29591000Y15049500D01*
X29591000Y22606000D02*
X29591000Y16065500D01*
X29591000Y23495000D02*
X29591000Y22606000D01*
X28638500Y24447500D02*
X29591000Y23495000D01*
X28638500Y26162000D02*
X28638500Y24447500D01*
X28638500Y27813000D02*
X28638500Y26162000D01*
X24892000Y37846000D02*
X26162000Y36576000D01*
X22733000Y37846000D02*
X24892000Y37846000D01*
X18986500Y41592500D02*
X22733000Y37846000D01*
X18986500Y47307500D02*
X18986500Y41592500D01*
X15367000Y50927000D02*
X18986500Y47307500D01*
X15367000Y64325500D02*
X15367000Y50927000D01*
X13843000Y65849500D02*
X15367000Y64325500D01*
X12890500Y65849500D02*
X13843000Y65849500D01*
X12827000Y65913000D02*
X12890500Y65849500D01*
X26162000Y41656000D02*
X27305000Y41656000D01*
X39497000Y11176000D02*
X43942000Y6731000D01*
X39497000Y12700000D02*
X39497000Y11176000D01*
X39052500Y13144500D02*
X39497000Y12700000D01*
X29337000Y13144500D02*
X39052500Y13144500D01*
X28257500Y14224000D02*
X29337000Y13144500D01*
X28257500Y22987000D02*
X28257500Y14224000D01*
X27241500Y24003000D02*
X28257500Y22987000D01*
X27241500Y32385000D02*
X27241500Y24003000D01*
X27749500Y32893000D02*
X27241500Y32385000D01*
X27749500Y41211500D02*
X27749500Y32893000D01*
X27305000Y41656000D02*
X27749500Y41211500D01*
X43942000Y6731000D02*
X43942000Y6096000D01*
X26162000Y41656000D02*
X26225500Y41656000D01*
X24892000Y42926000D02*
X26162000Y41656000D01*
X22225000Y42926000D02*
X24892000Y42926000D01*
X21272500Y43878500D02*
X22225000Y42926000D01*
X21272500Y48450500D02*
X21272500Y43878500D01*
X17907000Y51816000D02*
X21272500Y48450500D01*
X17907000Y67310000D02*
X17907000Y51816000D01*
X16764000Y68453000D02*
X17907000Y67310000D01*
X12827000Y68453000D02*
X16764000Y68453000D01*
X45212000Y4826000D02*
X46482000Y3556000D01*
X45212000Y8001000D02*
X45212000Y4826000D01*
X41910000Y11303000D02*
X45212000Y8001000D01*
X40957500Y11303000D02*
X41910000Y11303000D01*
X40449500Y11811000D02*
X40957500Y11303000D01*
X40449500Y12636500D02*
X40449500Y11811000D01*
X39370000Y13716000D02*
X40449500Y12636500D01*
X29908500Y13716000D02*
X39370000Y13716000D01*
X28892500Y14732000D02*
X29908500Y13716000D01*
X28892500Y23304500D02*
X28892500Y14732000D01*
X27940000Y24257000D02*
X28892500Y23304500D01*
X27940000Y26987500D02*
X27940000Y24257000D01*
X27940000Y28511500D02*
X27940000Y26987500D01*
X24892000Y40386000D02*
X26162000Y39116000D01*
X22796500Y40386000D02*
X24892000Y40386000D01*
X20129500Y43053000D02*
X22796500Y40386000D01*
X20129500Y47752000D02*
X20129500Y43053000D01*
X16637000Y51244500D02*
X20129500Y47752000D01*
X16637000Y66103500D02*
X16637000Y51244500D01*
X15557500Y67183000D02*
X16637000Y66103500D01*
X12827000Y67183000D02*
X15557500Y67183000D01*
X35623500Y41084500D02*
X35623500Y48323500D01*
X34353500Y31750000D02*
X34353500Y32385000D01*
X34353500Y32385000D02*
X34353500Y33972500D01*
X34353500Y33972500D02*
X35179000Y34798000D01*
X35179000Y34798000D02*
X35179000Y39497000D01*
X35179000Y39497000D02*
X35179000Y39687500D01*
X35179000Y39687500D02*
X35623500Y40132000D01*
X35623500Y41084500D02*
X35623500Y40132000D01*
X40386000Y54102000D02*
X40386000Y54927500D01*
X37592000Y51308000D02*
X40386000Y54102000D01*
X37592000Y49593500D02*
X37592000Y51308000D01*
X37147500Y49149000D02*
X37592000Y49593500D01*
X36449000Y49149000D02*
X37147500Y49149000D01*
X35623500Y48323500D02*
X36449000Y49149000D01*
X56451500Y54864000D02*
X61341000Y54864000D01*
X72263000Y54229000D02*
X72898000Y54864000D01*
X61976000Y54229000D02*
X72263000Y54229000D01*
X61341000Y54864000D02*
X61976000Y54229000D01*
X56451500Y54864000D02*
X40449500Y54864000D01*
X40449500Y54864000D02*
X40386000Y54927500D01*
X82486500Y49911000D02*
X81470500Y50927000D01*
X82486500Y34417000D02*
X82486500Y49911000D01*
X80137000Y32067500D02*
X82486500Y34417000D01*
X80137000Y29210000D02*
X80137000Y32067500D01*
X77597000Y26670000D02*
X80137000Y29210000D01*
X49466500Y26670000D02*
X77597000Y26670000D01*
X49403000Y26606500D02*
X49466500Y26670000D01*
X2921000Y59055000D02*
X8763000Y59055000D01*
X1778000Y57912000D02*
X2921000Y59055000D01*
X1778000Y36830000D02*
X1778000Y57912000D01*
X2032000Y36576000D02*
X1778000Y36830000D01*
X1143000Y35052000D02*
X1778000Y34417000D01*
X1143000Y58293000D02*
X1143000Y35052000D01*
X2667000Y59817000D02*
X1143000Y58293000D01*
X2921000Y59817000D02*
X2667000Y59817000D01*
X3175000Y59817000D02*
X2921000Y59817000D01*
X8509000Y59817000D02*
X3175000Y59817000D01*
X60769500Y57150000D02*
X60071000Y57848500D01*
X46926500Y57150000D02*
X46164500Y57912000D01*
X58356500Y57150000D02*
X46926500Y57150000D01*
X59055000Y57848500D02*
X58356500Y57150000D01*
X60071000Y57848500D02*
X59055000Y57848500D01*
X44577000Y37211000D02*
X46799500Y39433500D01*
X46799500Y39433500D02*
X50228500Y39433500D01*
X50228500Y39433500D02*
X50952400Y40157400D01*
X50952400Y40157400D02*
X50952400Y40538400D01*
X59182000Y50546000D02*
X59182000Y51511200D01*
X51054000Y40640000D02*
X50952400Y40538400D01*
X51054000Y47904400D02*
X51054000Y40640000D01*
X52832000Y49682400D02*
X51054000Y47904400D01*
X52832000Y51714400D02*
X52832000Y49682400D01*
X53136800Y52019200D02*
X52832000Y51714400D01*
X58674000Y52019200D02*
X53136800Y52019200D01*
X59182000Y51511200D02*
X58674000Y52019200D01*
X80645000Y62103000D02*
X81407000Y62865000D01*
X74168000Y62103000D02*
X80645000Y62103000D01*
X72771000Y60706000D02*
X74168000Y62103000D01*
X72771000Y59944000D02*
X72771000Y60706000D01*
X64135000Y61976000D02*
X64897000Y62738000D01*
X61722000Y61976000D02*
X64135000Y61976000D01*
X61087000Y61341000D02*
X61722000Y61976000D01*
X57277000Y61341000D02*
X61087000Y61341000D01*
X56515000Y60579000D02*
X57277000Y61341000D01*
X56515000Y59944000D02*
X56515000Y60579000D01*
X47752000Y61722000D02*
X48768000Y62738000D01*
X45212000Y61722000D02*
X47752000Y61722000D01*
X44323000Y60833000D02*
X45212000Y61722000D01*
X40767000Y60833000D02*
X44323000Y60833000D01*
X40386000Y60452000D02*
X40767000Y60833000D01*
X40386000Y59944000D02*
X40386000Y60452000D01*
X14224000Y40195500D02*
X15748000Y38671500D01*
X9969500Y40195500D02*
X14224000Y40195500D01*
X8826500Y41338500D02*
X9969500Y40195500D01*
X8826500Y54038500D02*
X8826500Y41338500D01*
X8953500Y54165500D02*
X8826500Y54038500D01*
X10033000Y36703000D02*
X15494000Y36703000D01*
X9334500Y37401500D02*
X10033000Y36703000D01*
X9334500Y39941500D02*
X9334500Y37401500D01*
X8132305Y41143695D02*
X9334500Y39941500D01*
X8132305Y43747195D02*
X8132305Y41143695D01*
X8128000Y43751500D02*
X8132305Y43747195D01*
X8128000Y47180500D02*
X8128000Y43751500D01*
X8128000Y53213000D02*
X8128000Y47180500D01*
X15494000Y36703000D02*
X15049500Y36258500D01*
X21018500Y18478500D02*
X21018500Y14922500D01*
X20193000Y19304000D02*
X21018500Y18478500D01*
X15557500Y19304000D02*
X20193000Y19304000D01*
X14795500Y20066000D02*
X15557500Y19304000D01*
X14795500Y25590500D02*
X14795500Y20066000D01*
X14351000Y26035000D02*
X14795500Y25590500D01*
X14351000Y29527500D02*
X14351000Y26035000D01*
X14859000Y30035500D02*
X14351000Y29527500D01*
X15494000Y30035500D02*
X14859000Y30035500D01*
X16002000Y30543500D02*
X15494000Y30035500D01*
X16002000Y34417000D02*
X16002000Y30543500D01*
X15049500Y35369500D02*
X16002000Y34417000D01*
X15049500Y36258500D02*
X15049500Y35369500D01*
X7429500Y54165500D02*
X8953500Y55689500D01*
X7429500Y40894000D02*
X7429500Y54165500D01*
X8763000Y39560500D02*
X7429500Y40894000D01*
X8763000Y35369500D02*
X8763000Y39560500D01*
X8826500Y35306000D02*
X8763000Y35369500D01*
X8826500Y30988000D02*
X8826500Y35306000D01*
X10096500Y29718000D02*
X8826500Y30988000D01*
X10096500Y26162000D02*
X10096500Y29718000D01*
X10858500Y25400000D02*
X10096500Y26162000D01*
X10858500Y20066000D02*
X10858500Y25400000D01*
X11303000Y19621500D02*
X10858500Y20066000D01*
X14351000Y19621500D02*
X11303000Y19621500D01*
X15176500Y18796000D02*
X14351000Y19621500D01*
X19621500Y18796000D02*
X15176500Y18796000D01*
X20383500Y18034000D02*
X19621500Y18796000D01*
X70485000Y63119000D02*
X69596000Y64008000D01*
X69596000Y64008000D02*
X57404000Y64008000D01*
X57404000Y64008000D02*
X56642000Y63246000D01*
X65532000Y32893000D02*
X65786000Y33147000D01*
X65786000Y33147000D02*
X65786000Y38735000D01*
X24384000Y56134000D02*
X24130000Y55880000D01*
X24384000Y66167000D02*
X24384000Y56134000D01*
X23368000Y67183000D02*
X24384000Y66167000D01*
X23241000Y67183000D02*
X23368000Y67183000D01*
X21971000Y67183000D02*
X23241000Y67183000D01*
M02*
