G04 #@! TF.FileFunction,Paste,Bot*
%FSLAX46Y46*%
G04 Gerber Fmt 4.6, Leading zero omitted, Abs format (unit mm)*
G04 Created by KiCad (PCBNEW 4.0.6) date 04/24/18 14:39:14*
%MOMM*%
%LPD*%
G01*
G04 APERTURE LIST*
%ADD10C,0.100000*%
%ADD11R,1.500000X1.300000*%
%ADD12R,1.560000X0.650000*%
%ADD13R,1.400000X0.400000*%
%ADD14R,1.500000X1.250000*%
%ADD15R,2.000000X1.600000*%
%ADD16R,1.250000X1.500000*%
%ADD17R,1.200000X3.300000*%
%ADD18R,2.000000X1.700000*%
%ADD19R,1.300000X1.500000*%
%ADD20R,1.550000X0.650000*%
%ADD21R,0.400000X1.400000*%
%ADD22R,1.560000X0.400000*%
%ADD23R,2.000000X0.600000*%
G04 APERTURE END LIST*
D10*
D11*
X68914000Y55880000D03*
X66214000Y55880000D03*
D12*
X33702000Y62042000D03*
X33702000Y62992000D03*
X33702000Y63942000D03*
X36402000Y63942000D03*
X36402000Y62042000D03*
X36402000Y62992000D03*
D13*
X42542000Y15540000D03*
X42542000Y16180000D03*
X42542000Y16840000D03*
X42542000Y17480000D03*
X45342000Y17480000D03*
X45342000Y16840000D03*
X45342000Y16180000D03*
X45342000Y15540000D03*
D14*
X28936000Y13462000D03*
X26436000Y13462000D03*
D15*
X8922000Y20828000D03*
X12922000Y20828000D03*
X8922000Y24384000D03*
X12922000Y24384000D03*
D14*
X9418000Y13970000D03*
X11918000Y13970000D03*
X9418000Y16002000D03*
X11918000Y16002000D03*
D16*
X74676000Y46502000D03*
X74676000Y49002000D03*
X76708000Y46502000D03*
X76708000Y49002000D03*
D14*
X34564000Y25654000D03*
X37064000Y25654000D03*
X37064000Y23622000D03*
X34564000Y23622000D03*
X28936000Y9398000D03*
X26436000Y9398000D03*
X26436000Y25654000D03*
X28936000Y25654000D03*
X26436000Y23622000D03*
X28936000Y23622000D03*
X28936000Y21590000D03*
X26436000Y21590000D03*
X28936000Y19558000D03*
X26436000Y19558000D03*
X28936000Y11430000D03*
X26436000Y11430000D03*
X50820000Y25654000D03*
X53320000Y25654000D03*
X53320000Y23622000D03*
X50820000Y23622000D03*
X45192000Y9398000D03*
X42692000Y9398000D03*
X42692000Y25654000D03*
X45192000Y25654000D03*
X42692000Y23622000D03*
X45192000Y23622000D03*
X45192000Y21590000D03*
X42692000Y21590000D03*
X45192000Y19558000D03*
X42692000Y19558000D03*
X45192000Y13462000D03*
X42692000Y13462000D03*
X45192000Y11430000D03*
X42692000Y11430000D03*
X67076000Y25654000D03*
X69576000Y25654000D03*
X69576000Y23622000D03*
X67076000Y23622000D03*
X61448000Y9398000D03*
X58948000Y9398000D03*
X58948000Y25654000D03*
X61448000Y25654000D03*
X58948000Y23622000D03*
X61448000Y23622000D03*
X61448000Y21590000D03*
X58948000Y21590000D03*
X61448000Y19558000D03*
X58948000Y19558000D03*
X61448000Y13462000D03*
X58948000Y13462000D03*
X61448000Y11430000D03*
X58948000Y11430000D03*
X83332000Y25654000D03*
X85832000Y25654000D03*
X85832000Y23622000D03*
X83332000Y23622000D03*
X77704000Y9398000D03*
X75204000Y9398000D03*
X75204000Y25654000D03*
X77704000Y25654000D03*
X75204000Y23622000D03*
X77704000Y23622000D03*
X77704000Y21590000D03*
X75204000Y21590000D03*
X77704000Y19558000D03*
X75204000Y19558000D03*
X77704000Y13462000D03*
X75204000Y13462000D03*
X77704000Y11430000D03*
X75204000Y11430000D03*
X67076000Y43942000D03*
X69576000Y43942000D03*
X69576000Y41910000D03*
X67076000Y41910000D03*
X64496000Y35052000D03*
X61996000Y35052000D03*
X64496000Y37084000D03*
X61996000Y37084000D03*
D16*
X64516000Y39390000D03*
X64516000Y41890000D03*
X61976000Y41763000D03*
X61976000Y39263000D03*
X64516000Y46502000D03*
X64516000Y49002000D03*
X70612000Y46502000D03*
X70612000Y49002000D03*
X72644000Y46502000D03*
X72644000Y49002000D03*
D14*
X83332000Y43942000D03*
X85832000Y43942000D03*
X85832000Y41910000D03*
X83332000Y41910000D03*
X75204000Y27686000D03*
X77704000Y27686000D03*
X75204000Y43942000D03*
X77704000Y43942000D03*
X75204000Y41910000D03*
X77704000Y41910000D03*
X77704000Y39878000D03*
X75204000Y39878000D03*
X77704000Y37846000D03*
X75204000Y37846000D03*
X75204000Y31750000D03*
X77704000Y31750000D03*
X75204000Y29718000D03*
X77704000Y29718000D03*
X66314000Y68072000D03*
X68814000Y68072000D03*
X68814000Y66040000D03*
X66314000Y66040000D03*
X76942000Y66040000D03*
X74442000Y66040000D03*
X74442000Y68072000D03*
X76942000Y68072000D03*
X74442000Y64008000D03*
X76942000Y64008000D03*
X60686000Y61976000D03*
X58186000Y61976000D03*
X52558000Y68072000D03*
X50058000Y68072000D03*
X60686000Y66040000D03*
X58186000Y66040000D03*
X58186000Y68072000D03*
X60686000Y68072000D03*
X58186000Y64008000D03*
X60686000Y64008000D03*
X44430000Y61976000D03*
X41930000Y61976000D03*
X41930000Y64008000D03*
X44430000Y64008000D03*
X44430000Y66040000D03*
X41930000Y66040000D03*
X41930000Y68072000D03*
X44430000Y68072000D03*
X52558000Y66040000D03*
X50058000Y66040000D03*
X36302000Y68072000D03*
X33802000Y68072000D03*
X36302000Y66040000D03*
X33802000Y66040000D03*
X36302000Y55880000D03*
X33802000Y55880000D03*
X36302000Y53848000D03*
X33802000Y53848000D03*
X25674000Y68072000D03*
X28174000Y68072000D03*
X25674000Y66040000D03*
X28174000Y66040000D03*
X25674000Y64008000D03*
X28174000Y64008000D03*
X25674000Y61976000D03*
X28174000Y61976000D03*
X13188000Y49784000D03*
X10688000Y49784000D03*
X13188000Y47752000D03*
X10688000Y47752000D03*
X13188000Y45720000D03*
X10688000Y45720000D03*
X13188000Y43688000D03*
X10688000Y43688000D03*
X13188000Y41656000D03*
X10688000Y41656000D03*
X19030000Y28702000D03*
X16530000Y28702000D03*
X19030000Y26670000D03*
X16530000Y26670000D03*
X20300000Y24638000D03*
X17800000Y24638000D03*
X20300000Y22606000D03*
X17800000Y22606000D03*
X20300000Y20574000D03*
X17800000Y20574000D03*
D16*
X8382000Y61488000D03*
X8382000Y63988000D03*
D17*
X11710000Y27940000D03*
X8610000Y27940000D03*
D14*
X37064000Y9398000D03*
X34564000Y9398000D03*
X50820000Y9398000D03*
X53320000Y9398000D03*
X69576000Y9398000D03*
X67076000Y9398000D03*
X85832000Y9398000D03*
X83332000Y9398000D03*
X67076000Y27686000D03*
X69576000Y27686000D03*
X85832000Y27686000D03*
X83332000Y27686000D03*
X85070000Y53848000D03*
X82570000Y53848000D03*
X68814000Y53848000D03*
X66314000Y53848000D03*
X52558000Y53848000D03*
X50058000Y53848000D03*
D18*
X8922000Y18288000D03*
X12922000Y18288000D03*
D11*
X46910000Y48006000D03*
X49610000Y48006000D03*
X32846000Y32766000D03*
X30146000Y32766000D03*
X40974000Y32766000D03*
X38274000Y32766000D03*
X12018000Y9144000D03*
X9318000Y9144000D03*
X12018000Y11430000D03*
X9318000Y11430000D03*
X6176000Y44450000D03*
X3476000Y44450000D03*
D19*
X87884000Y49356000D03*
X87884000Y46656000D03*
D11*
X34464000Y11430000D03*
X37164000Y11430000D03*
X37164000Y13462000D03*
X34464000Y13462000D03*
X37164000Y21590000D03*
X34464000Y21590000D03*
X34464000Y19558000D03*
X37164000Y19558000D03*
X50720000Y11430000D03*
X53420000Y11430000D03*
X53420000Y13462000D03*
X50720000Y13462000D03*
X53420000Y21590000D03*
X50720000Y21590000D03*
X50720000Y19558000D03*
X53420000Y19558000D03*
X66976000Y11430000D03*
X69676000Y11430000D03*
X69676000Y13462000D03*
X66976000Y13462000D03*
X69676000Y21590000D03*
X66976000Y21590000D03*
X66976000Y19558000D03*
X69676000Y19558000D03*
X83232000Y11430000D03*
X85932000Y11430000D03*
X85932000Y13462000D03*
X83232000Y13462000D03*
X85932000Y21590000D03*
X83232000Y21590000D03*
X83232000Y19558000D03*
X85932000Y19558000D03*
X69676000Y29718000D03*
X66976000Y29718000D03*
X66976000Y31750000D03*
X69676000Y31750000D03*
X69676000Y39878000D03*
X66976000Y39878000D03*
X69676000Y37719000D03*
X66976000Y37719000D03*
X83232000Y29718000D03*
X85932000Y29718000D03*
X83232000Y31750000D03*
X85932000Y31750000D03*
X85932000Y39878000D03*
X83232000Y39878000D03*
X83232000Y37846000D03*
X85932000Y37846000D03*
X45292000Y27686000D03*
X42592000Y27686000D03*
X34464000Y27686000D03*
X37164000Y27686000D03*
X61548000Y27686000D03*
X58848000Y27686000D03*
X53420000Y27686000D03*
X50720000Y27686000D03*
X77042000Y53848000D03*
X74342000Y53848000D03*
X77042000Y55880000D03*
X74342000Y55880000D03*
X85170000Y55880000D03*
X82470000Y55880000D03*
X82470000Y57912000D03*
X85170000Y57912000D03*
X74342000Y61976000D03*
X77042000Y61976000D03*
X60786000Y53848000D03*
X58086000Y53848000D03*
X60786000Y55880000D03*
X58086000Y55880000D03*
X66214000Y57912000D03*
X68914000Y57912000D03*
X68914000Y64008000D03*
X66214000Y64008000D03*
X44530000Y53848000D03*
X41830000Y53848000D03*
X44530000Y55880000D03*
X41830000Y55880000D03*
X52658000Y55880000D03*
X49958000Y55880000D03*
X49958000Y57912000D03*
X52658000Y57912000D03*
X52658000Y64008000D03*
X49958000Y64008000D03*
X14558000Y31496000D03*
X11858000Y31496000D03*
X11858000Y33528000D03*
X14558000Y33528000D03*
X20400000Y9398000D03*
X17700000Y9398000D03*
X17700000Y11430000D03*
X20400000Y11430000D03*
X3476000Y40513000D03*
X6176000Y40513000D03*
X3476000Y38354000D03*
X6176000Y38354000D03*
X3476000Y36068000D03*
X6176000Y36068000D03*
X3476000Y33909000D03*
X6176000Y33909000D03*
X25574000Y59944000D03*
X28274000Y59944000D03*
X28274000Y57912000D03*
X25574000Y57912000D03*
X25574000Y55880000D03*
X28274000Y55880000D03*
X28274000Y53848000D03*
X25574000Y53848000D03*
D19*
X23114000Y62404000D03*
X23114000Y65104000D03*
X23114000Y57324000D03*
X23114000Y60024000D03*
D20*
X79850000Y47117000D03*
X79850000Y48387000D03*
X79850000Y49657000D03*
X79850000Y50927000D03*
X85250000Y50927000D03*
X85250000Y49657000D03*
X85250000Y48387000D03*
X85250000Y47117000D03*
D12*
X40974000Y40574000D03*
X40974000Y39624000D03*
X40974000Y38674000D03*
X38274000Y38674000D03*
X38274000Y40574000D03*
X40974000Y44384000D03*
X40974000Y43434000D03*
X40974000Y42484000D03*
X38274000Y42484000D03*
X38274000Y44384000D03*
X40974000Y48194000D03*
X40974000Y47244000D03*
X40974000Y46294000D03*
X38274000Y46294000D03*
X38274000Y48194000D03*
X32846000Y40574000D03*
X32846000Y39624000D03*
X32846000Y38674000D03*
X30146000Y38674000D03*
X30146000Y40574000D03*
X32846000Y44384000D03*
X32846000Y43434000D03*
X32846000Y42484000D03*
X30146000Y42484000D03*
X30146000Y44384000D03*
X32846000Y48194000D03*
X32846000Y47244000D03*
X32846000Y46294000D03*
X30146000Y46294000D03*
X30146000Y48194000D03*
X34464000Y15560000D03*
X34464000Y16510000D03*
X34464000Y17460000D03*
X37164000Y17460000D03*
X37164000Y15560000D03*
D13*
X26286000Y15540000D03*
X26286000Y16180000D03*
X26286000Y16840000D03*
X26286000Y17480000D03*
X29086000Y17480000D03*
X29086000Y16840000D03*
X29086000Y16180000D03*
X29086000Y15540000D03*
D12*
X50720000Y15560000D03*
X50720000Y16510000D03*
X50720000Y17460000D03*
X53420000Y17460000D03*
X53420000Y15560000D03*
X66976000Y15560000D03*
X66976000Y16510000D03*
X66976000Y17460000D03*
X69676000Y17460000D03*
X69676000Y15560000D03*
D13*
X58798000Y15540000D03*
X58798000Y16180000D03*
X58798000Y16840000D03*
X58798000Y17480000D03*
X61598000Y17480000D03*
X61598000Y16840000D03*
X61598000Y16180000D03*
X61598000Y15540000D03*
D12*
X83232000Y15560000D03*
X83232000Y16510000D03*
X83232000Y17460000D03*
X85932000Y17460000D03*
X85932000Y15560000D03*
D13*
X75054000Y15540000D03*
X75054000Y16180000D03*
X75054000Y16840000D03*
X75054000Y17480000D03*
X77854000Y17480000D03*
X77854000Y16840000D03*
X77854000Y16180000D03*
X77854000Y15540000D03*
D12*
X66976000Y33848000D03*
X66976000Y34798000D03*
X66976000Y35748000D03*
X69676000Y35748000D03*
X69676000Y33848000D03*
D21*
X66594000Y49152000D03*
X67234000Y49152000D03*
X67894000Y49152000D03*
X68534000Y49152000D03*
X68534000Y46352000D03*
X67894000Y46352000D03*
X67234000Y46352000D03*
X66594000Y46352000D03*
D12*
X83232000Y33848000D03*
X83232000Y34798000D03*
X83232000Y35748000D03*
X85932000Y35748000D03*
X85932000Y33848000D03*
D13*
X75054000Y33828000D03*
X75054000Y34468000D03*
X75054000Y35128000D03*
X75054000Y35768000D03*
X77854000Y35768000D03*
X77854000Y35128000D03*
X77854000Y34468000D03*
X77854000Y33828000D03*
D12*
X32846000Y36764000D03*
X32846000Y35814000D03*
X32846000Y34864000D03*
X30146000Y34864000D03*
X30146000Y36764000D03*
X40974000Y36764000D03*
X40974000Y35814000D03*
X40974000Y34864000D03*
X38274000Y34864000D03*
X38274000Y36764000D03*
X48594000Y38288000D03*
X48594000Y37338000D03*
X48594000Y36388000D03*
X45894000Y36388000D03*
X45894000Y38288000D03*
X48594000Y42352000D03*
X48594000Y41402000D03*
X48594000Y40452000D03*
X45894000Y40452000D03*
X45894000Y42352000D03*
X48594000Y45908000D03*
X48594000Y44958000D03*
X48594000Y44008000D03*
X45894000Y44008000D03*
X45894000Y45908000D03*
X56722000Y45908000D03*
X56722000Y44958000D03*
X56722000Y44008000D03*
X54022000Y44008000D03*
X54022000Y45908000D03*
X56722000Y38288000D03*
X56722000Y37338000D03*
X56722000Y36388000D03*
X54022000Y36388000D03*
X54022000Y38288000D03*
X56722000Y42098000D03*
X56722000Y41148000D03*
X56722000Y40198000D03*
X54022000Y40198000D03*
X54022000Y42098000D03*
D22*
X74342000Y57948000D03*
X74342000Y58598000D03*
X74342000Y59258000D03*
X74342000Y59908000D03*
X77042000Y59908000D03*
X77042000Y59258000D03*
X77042000Y58598000D03*
X77042000Y57948000D03*
D12*
X82470000Y60010000D03*
X82470000Y60960000D03*
X82470000Y61910000D03*
X85170000Y61910000D03*
X85170000Y60010000D03*
D22*
X58086000Y57948000D03*
X58086000Y58598000D03*
X58086000Y59258000D03*
X58086000Y59908000D03*
X60786000Y59908000D03*
X60786000Y59258000D03*
X60786000Y58598000D03*
X60786000Y57948000D03*
D12*
X66214000Y60010000D03*
X66214000Y60960000D03*
X66214000Y61910000D03*
X68914000Y61910000D03*
X68914000Y60010000D03*
D22*
X41830000Y57948000D03*
X41830000Y58598000D03*
X41830000Y59258000D03*
X41830000Y59908000D03*
X44530000Y59908000D03*
X44530000Y59258000D03*
X44530000Y58598000D03*
X44530000Y57948000D03*
D12*
X49958000Y60010000D03*
X49958000Y60960000D03*
X49958000Y61910000D03*
X52658000Y61910000D03*
X52658000Y60010000D03*
X33702000Y57978000D03*
X33702000Y58928000D03*
X33702000Y59878000D03*
X36402000Y59878000D03*
X36402000Y57978000D03*
X36402000Y58928000D03*
D20*
X11778000Y35687000D03*
X11778000Y36957000D03*
X11778000Y38227000D03*
X11778000Y39497000D03*
X17178000Y39497000D03*
X17178000Y38227000D03*
X17178000Y36957000D03*
X17178000Y35687000D03*
X17874000Y14097000D03*
X17874000Y15367000D03*
X17874000Y16637000D03*
X17874000Y17907000D03*
X23274000Y17907000D03*
X23274000Y16637000D03*
X23274000Y15367000D03*
X23274000Y14097000D03*
D23*
X11048000Y51943000D03*
X11048000Y53213000D03*
X11048000Y54483000D03*
X11048000Y55753000D03*
X11048000Y57023000D03*
X11048000Y58293000D03*
X11048000Y59563000D03*
X11048000Y60833000D03*
X11048000Y62103000D03*
X11048000Y63373000D03*
X11048000Y64643000D03*
X11048000Y65913000D03*
X11048000Y67183000D03*
X11048000Y68453000D03*
X20448000Y68453000D03*
X20448000Y67183000D03*
X20448000Y65913000D03*
X20448000Y64643000D03*
X20448000Y63373000D03*
X20448000Y62103000D03*
X20448000Y60833000D03*
X20448000Y59563000D03*
X20448000Y58293000D03*
X20448000Y57023000D03*
X20448000Y55753000D03*
X20448000Y54483000D03*
X20448000Y53213000D03*
X20448000Y51943000D03*
M02*
